<?xml version="1.0" encoding="utf-8" standalone="no"?>
<!DOCTYPE svg PUBLIC "-//W3C//DTD SVG 1.1//EN"
  "http://www.w3.org/Graphics/SVG/1.1/DTD/svg11.dtd">
<svg xmlns:xlink="http://www.w3.org/1999/xlink" width="608.320376pt" height="266.196328pt" viewBox="0 0 608.320376 266.196328" xmlns="http://www.w3.org/2000/svg" version="1.1">
 <metadata>
  <rdf:RDF xmlns:dc="http://purl.org/dc/elements/1.1/" xmlns:cc="http://creativecommons.org/ns#" xmlns:rdf="http://www.w3.org/1999/02/22-rdf-syntax-ns#">
   <cc:Work>
    <dc:type rdf:resource="http://purl.org/dc/dcmitype/StillImage"/>
    <dc:date>2026-08-28T19:04:24.578958</dc:date>
    <dc:format>image/svg+xml</dc:format>
    <dc:creator>
     <cc:Agent>
      <dc:title>Matplotlib v3.11.1, https://matplotlib.org/</dc:title>
     </cc:Agent>
    </dc:creator>
   </cc:Work>
  </rdf:RDF>
 </metadata>
 <defs>
  <style type="text/css">*{stroke-linejoin: round; stroke-linecap: butt}</style>
 </defs>
 <g id="figure_1">
  <g id="patch_1">
   <path d="M 0 266.196328 
L 608.320376 266.196328 
L 608.320376 0 
L 0 0 
z
" style="fill: #ffffff"/>
  </g>
  <g id="axes_1">
   <g id="patch_2">
    <path d="M 62.5575 242.996328 
L 592.031902 242.996328 
L 592.031902 20.798437 
L 62.5575 20.798437 
z
" style="fill: #ffffff"/>
   </g>
   <g id="matplotlib.axis_1">
    <g id="xtick_1">
     <g id="line2d_1">
      <path d="M 86.624518 242.996328 
L 86.624518 20.798437 
" clip-path="url(#pe965ee6623)" style="fill: none; stroke-dasharray: 0.8,1.32; stroke-dashoffset: 0; stroke: #b0b0b0; stroke-opacity: 0.25; stroke-width: 0.8"/>
     </g>
     <g id="line2d_2">
      <defs>
       <path id="mf2ff5a9f17" d="M 0 0 
L 0 3.5 
" style="stroke: #000000; stroke-width: 0.8"/>
      </defs>
      <g>
       <use xlink:href="#mf2ff5a9f17" x="86.624518" y="242.996328" style="stroke: #000000; stroke-width: 0.8"/>
      </g>
     </g>
     <g id="text_1">
      <!-- 2026-01 -->
      <g transform="translate(67.924909 256.834219) scale(0.09 -0.09)">
       <defs>
        <path id="DejaVuSerif-15" d="M 819 3553 
L 469 3553 
L 469 4384 
Q 803 4563 1142 4656 
Q 1481 4750 1806 4750 
Q 2534 4750 2956 4397 
Q 3378 4044 3378 3438 
Q 3378 2753 2422 1800 
Q 2347 1728 2309 1691 
L 1131 513 
L 3078 513 
L 3078 1088 
L 3444 1088 
L 3444 0 
L 434 0 
L 434 341 
L 1850 1753 
Q 2319 2222 2519 2614 
Q 2719 3006 2719 3438 
Q 2719 3909 2473 4175 
Q 2228 4441 1797 4441 
Q 1350 4441 1106 4219 
Q 863 3997 819 3553 
z
" transform="scale(0.015625)"/>
        <path id="DejaVuSerif-13" d="M 2034 219 
Q 2513 219 2750 744 
Q 2988 1269 2988 2328 
Q 2988 3391 2750 3916 
Q 2513 4441 2034 4441 
Q 1556 4441 1318 3916 
Q 1081 3391 1081 2328 
Q 1081 1269 1318 744 
Q 1556 219 2034 219 
z
M 2034 -91 
Q 1275 -91 848 546 
Q 422 1184 422 2328 
Q 422 3475 848 4112 
Q 1275 4750 2034 4750 
Q 2797 4750 3222 4112 
Q 3647 3475 3647 2328 
Q 3647 1184 3222 546 
Q 2797 -91 2034 -91 
z
" transform="scale(0.015625)"/>
        <path id="DejaVuSerif-19" d="M 2094 219 
Q 2534 219 2771 542 
Q 3009 866 3009 1472 
Q 3009 2078 2771 2401 
Q 2534 2725 2094 2725 
Q 1647 2725 1412 2412 
Q 1178 2100 1178 1509 
Q 1178 888 1415 553 
Q 1653 219 2094 219 
z
M 1075 2569 
Q 1288 2803 1556 2918 
Q 1825 3034 2163 3034 
Q 2859 3034 3264 2615 
Q 3669 2197 3669 1472 
Q 3669 763 3233 336 
Q 2797 -91 2069 -91 
Q 1278 -91 853 498 
Q 428 1088 428 2181 
Q 428 3406 931 4078 
Q 1434 4750 2350 4750 
Q 2597 4750 2869 4703 
Q 3141 4656 3425 4563 
L 3425 3794 
L 3072 3794 
Q 3034 4109 2831 4275 
Q 2628 4441 2284 4441 
Q 1678 4441 1381 3981 
Q 1084 3522 1075 2569 
z
" transform="scale(0.015625)"/>
        <path id="DejaVuSerif-10" d="M 281 1959 
L 1881 1959 
L 1881 1472 
L 281 1472 
L 281 1959 
z
" transform="scale(0.015625)"/>
        <path id="DejaVuSerif-14" d="M 909 0 
L 909 331 
L 1722 331 
L 1722 4213 
L 781 3603 
L 781 4013 
L 1919 4750 
L 2350 4750 
L 2350 331 
L 3163 331 
L 3163 0 
L 909 0 
z
" transform="scale(0.015625)"/>
       </defs>
       <use xlink:href="#DejaVuSerif-15"/>
       <use xlink:href="#DejaVuSerif-13" transform="translate(63.625 0)"/>
       <use xlink:href="#DejaVuSerif-15" transform="translate(127.25 0)"/>
       <use xlink:href="#DejaVuSerif-19" transform="translate(190.875 0)"/>
       <use xlink:href="#DejaVuSerif-10" transform="translate(254.5 0)"/>
       <use xlink:href="#DejaVuSerif-13" transform="translate(288.296875 0)"/>
       <use xlink:href="#DejaVuSerif-14" transform="translate(351.921875 0)"/>
      </g>
     </g>
    </g>
    <g id="xtick_2">
     <g id="line2d_3">
      <path d="M 149.320112 242.996328 
L 149.320112 20.798437 
" clip-path="url(#pe965ee6623)" style="fill: none; stroke-dasharray: 0.8,1.32; stroke-dashoffset: 0; stroke: #b0b0b0; stroke-opacity: 0.25; stroke-width: 0.8"/>
     </g>
     <g id="line2d_4">
      <g>
       <use xlink:href="#mf2ff5a9f17" x="149.320112" y="242.996328" style="stroke: #000000; stroke-width: 0.8"/>
      </g>
     </g>
     <g id="text_2">
      <!-- 2026-02 -->
      <g transform="translate(130.620503 256.834219) scale(0.09 -0.09)">
       <use xlink:href="#DejaVuSerif-15"/>
       <use xlink:href="#DejaVuSerif-13" transform="translate(63.625 0)"/>
       <use xlink:href="#DejaVuSerif-15" transform="translate(127.25 0)"/>
       <use xlink:href="#DejaVuSerif-19" transform="translate(190.875 0)"/>
       <use xlink:href="#DejaVuSerif-10" transform="translate(254.5 0)"/>
       <use xlink:href="#DejaVuSerif-13" transform="translate(288.296875 0)"/>
       <use xlink:href="#DejaVuSerif-15" transform="translate(351.921875 0)"/>
      </g>
     </g>
    </g>
    <g id="xtick_3">
     <g id="line2d_5">
      <path d="M 205.94839 242.996328 
L 205.94839 20.798437 
" clip-path="url(#pe965ee6623)" style="fill: none; stroke-dasharray: 0.8,1.32; stroke-dashoffset: 0; stroke: #b0b0b0; stroke-opacity: 0.25; stroke-width: 0.8"/>
     </g>
     <g id="line2d_6">
      <g>
       <use xlink:href="#mf2ff5a9f17" x="205.94839" y="242.996328" style="stroke: #000000; stroke-width: 0.8"/>
      </g>
     </g>
     <g id="text_3">
      <!-- 2026-03 -->
      <g transform="translate(187.248781 256.834219) scale(0.09 -0.09)">
       <defs>
        <path id="DejaVuSerif-16" d="M 622 4469 
Q 988 4606 1323 4678 
Q 1659 4750 1953 4750 
Q 2638 4750 3022 4454 
Q 3406 4159 3406 3634 
Q 3406 3213 3140 2930 
Q 2875 2647 2388 2547 
Q 2963 2466 3280 2130 
Q 3597 1794 3597 1259 
Q 3597 606 3158 257 
Q 2719 -91 1894 -91 
Q 1528 -91 1179 -12 
Q 831 66 488 225 
L 488 1131 
L 838 1131 
Q 869 681 1141 450 
Q 1413 219 1906 219 
Q 2384 219 2661 495 
Q 2938 772 2938 1253 
Q 2938 1803 2653 2086 
Q 2369 2369 1819 2369 
L 1522 2369 
L 1522 2688 
L 1678 2688 
Q 2225 2688 2498 2914 
Q 2772 3141 2772 3597 
Q 2772 4006 2547 4223 
Q 2322 4441 1900 4441 
Q 1478 4441 1245 4241 
Q 1013 4041 972 3647 
L 622 3647 
L 622 4469 
z
" transform="scale(0.015625)"/>
       </defs>
       <use xlink:href="#DejaVuSerif-15"/>
       <use xlink:href="#DejaVuSerif-13" transform="translate(63.625 0)"/>
       <use xlink:href="#DejaVuSerif-15" transform="translate(127.25 0)"/>
       <use xlink:href="#DejaVuSerif-19" transform="translate(190.875 0)"/>
       <use xlink:href="#DejaVuSerif-10" transform="translate(254.5 0)"/>
       <use xlink:href="#DejaVuSerif-13" transform="translate(288.296875 0)"/>
       <use xlink:href="#DejaVuSerif-16" transform="translate(351.921875 0)"/>
      </g>
     </g>
    </g>
    <g id="xtick_4">
     <g id="line2d_7">
      <path d="M 268.643984 242.996328 
L 268.643984 20.798437 
" clip-path="url(#pe965ee6623)" style="fill: none; stroke-dasharray: 0.8,1.32; stroke-dashoffset: 0; stroke: #b0b0b0; stroke-opacity: 0.25; stroke-width: 0.8"/>
     </g>
     <g id="line2d_8">
      <g>
       <use xlink:href="#mf2ff5a9f17" x="268.643984" y="242.996328" style="stroke: #000000; stroke-width: 0.8"/>
      </g>
     </g>
     <g id="text_4">
      <!-- 2026-04 -->
      <g transform="translate(249.944375 256.834219) scale(0.09 -0.09)">
       <defs>
        <path id="DejaVuSerif-17" d="M 2234 1581 
L 2234 4063 
L 641 1581 
L 2234 1581 
z
M 3609 0 
L 1484 0 
L 1484 331 
L 2234 331 
L 2234 1247 
L 197 1247 
L 197 1588 
L 2241 4750 
L 2859 4750 
L 2859 1581 
L 3750 1581 
L 3750 1247 
L 2859 1247 
L 2859 331 
L 3609 331 
L 3609 0 
z
" transform="scale(0.015625)"/>
       </defs>
       <use xlink:href="#DejaVuSerif-15"/>
       <use xlink:href="#DejaVuSerif-13" transform="translate(63.625 0)"/>
       <use xlink:href="#DejaVuSerif-15" transform="translate(127.25 0)"/>
       <use xlink:href="#DejaVuSerif-19" transform="translate(190.875 0)"/>
       <use xlink:href="#DejaVuSerif-10" transform="translate(254.5 0)"/>
       <use xlink:href="#DejaVuSerif-13" transform="translate(288.296875 0)"/>
       <use xlink:href="#DejaVuSerif-17" transform="translate(351.921875 0)"/>
      </g>
     </g>
    </g>
    <g id="xtick_5">
     <g id="line2d_9">
      <path d="M 329.317139 242.996328 
L 329.317139 20.798437 
" clip-path="url(#pe965ee6623)" style="fill: none; stroke-dasharray: 0.8,1.32; stroke-dashoffset: 0; stroke: #b0b0b0; stroke-opacity: 0.25; stroke-width: 0.8"/>
     </g>
     <g id="line2d_10">
      <g>
       <use xlink:href="#mf2ff5a9f17" x="329.317139" y="242.996328" style="stroke: #000000; stroke-width: 0.8"/>
      </g>
     </g>
     <g id="text_5">
      <!-- 2026-05 -->
      <g transform="translate(310.61753 256.834219) scale(0.09 -0.09)">
       <defs>
        <path id="DejaVuSerif-18" d="M 3219 4666 
L 3219 4153 
L 1081 4153 
L 1081 2816 
Q 1244 2928 1461 2984 
Q 1678 3041 1947 3041 
Q 2703 3041 3140 2622 
Q 3578 2203 3578 1478 
Q 3578 738 3136 323 
Q 2694 -91 1894 -91 
Q 1572 -91 1234 -12 
Q 897 66 544 225 
L 544 1131 
L 897 1131 
Q 925 688 1179 453 
Q 1434 219 1894 219 
Q 2388 219 2653 544 
Q 2919 869 2919 1478 
Q 2919 2084 2655 2407 
Q 2391 2731 1894 2731 
Q 1613 2731 1398 2631 
Q 1184 2531 1019 2322 
L 750 2322 
L 750 4666 
L 3219 4666 
z
" transform="scale(0.015625)"/>
       </defs>
       <use xlink:href="#DejaVuSerif-15"/>
       <use xlink:href="#DejaVuSerif-13" transform="translate(63.625 0)"/>
       <use xlink:href="#DejaVuSerif-15" transform="translate(127.25 0)"/>
       <use xlink:href="#DejaVuSerif-19" transform="translate(190.875 0)"/>
       <use xlink:href="#DejaVuSerif-10" transform="translate(254.5 0)"/>
       <use xlink:href="#DejaVuSerif-13" transform="translate(288.296875 0)"/>
       <use xlink:href="#DejaVuSerif-18" transform="translate(351.921875 0)"/>
      </g>
     </g>
    </g>
    <g id="xtick_6">
     <g id="line2d_11">
      <path d="M 392.012733 242.996328 
L 392.012733 20.798437 
" clip-path="url(#pe965ee6623)" style="fill: none; stroke-dasharray: 0.8,1.32; stroke-dashoffset: 0; stroke: #b0b0b0; stroke-opacity: 0.25; stroke-width: 0.8"/>
     </g>
     <g id="line2d_12">
      <g>
       <use xlink:href="#mf2ff5a9f17" x="392.012733" y="242.996328" style="stroke: #000000; stroke-width: 0.8"/>
      </g>
     </g>
     <g id="text_6">
      <!-- 2026-06 -->
      <g transform="translate(373.313124 256.834219) scale(0.09 -0.09)">
       <use xlink:href="#DejaVuSerif-15"/>
       <use xlink:href="#DejaVuSerif-13" transform="translate(63.625 0)"/>
       <use xlink:href="#DejaVuSerif-15" transform="translate(127.25 0)"/>
       <use xlink:href="#DejaVuSerif-19" transform="translate(190.875 0)"/>
       <use xlink:href="#DejaVuSerif-10" transform="translate(254.5 0)"/>
       <use xlink:href="#DejaVuSerif-13" transform="translate(288.296875 0)"/>
       <use xlink:href="#DejaVuSerif-19" transform="translate(351.921875 0)"/>
      </g>
     </g>
    </g>
    <g id="xtick_7">
     <g id="line2d_13">
      <path d="M 452.685889 242.996328 
L 452.685889 20.798437 
" clip-path="url(#pe965ee6623)" style="fill: none; stroke-dasharray: 0.8,1.32; stroke-dashoffset: 0; stroke: #b0b0b0; stroke-opacity: 0.25; stroke-width: 0.8"/>
     </g>
     <g id="line2d_14">
      <g>
       <use xlink:href="#mf2ff5a9f17" x="452.685889" y="242.996328" style="stroke: #000000; stroke-width: 0.8"/>
      </g>
     </g>
     <g id="text_7">
      <!-- 2026-07 -->
      <g transform="translate(433.986279 256.834219) scale(0.09 -0.09)">
       <defs>
        <path id="DejaVuSerif-1a" d="M 3609 4347 
L 1784 0 
L 1319 0 
L 3059 4153 
L 903 4153 
L 903 3578 
L 538 3578 
L 538 4666 
L 3609 4666 
L 3609 4347 
z
" transform="scale(0.015625)"/>
       </defs>
       <use xlink:href="#DejaVuSerif-15"/>
       <use xlink:href="#DejaVuSerif-13" transform="translate(63.625 0)"/>
       <use xlink:href="#DejaVuSerif-15" transform="translate(127.25 0)"/>
       <use xlink:href="#DejaVuSerif-19" transform="translate(190.875 0)"/>
       <use xlink:href="#DejaVuSerif-10" transform="translate(254.5 0)"/>
       <use xlink:href="#DejaVuSerif-13" transform="translate(288.296875 0)"/>
       <use xlink:href="#DejaVuSerif-1a" transform="translate(351.921875 0)"/>
      </g>
     </g>
    </g>
    <g id="xtick_8">
     <g id="line2d_15">
      <path d="M 515.381482 242.996328 
L 515.381482 20.798437 
" clip-path="url(#pe965ee6623)" style="fill: none; stroke-dasharray: 0.8,1.32; stroke-dashoffset: 0; stroke: #b0b0b0; stroke-opacity: 0.25; stroke-width: 0.8"/>
     </g>
     <g id="line2d_16">
      <g>
       <use xlink:href="#mf2ff5a9f17" x="515.381482" y="242.996328" style="stroke: #000000; stroke-width: 0.8"/>
      </g>
     </g>
     <g id="text_8">
      <!-- 2026-08 -->
      <g transform="translate(496.681873 256.834219) scale(0.09 -0.09)">
       <defs>
        <path id="DejaVuSerif-1b" d="M 2981 1275 
Q 2981 1775 2732 2051 
Q 2484 2328 2034 2328 
Q 1584 2328 1336 2051 
Q 1088 1775 1088 1275 
Q 1088 772 1336 495 
Q 1584 219 2034 219 
Q 2484 219 2732 495 
Q 2981 772 2981 1275 
z
M 2853 3541 
Q 2853 3966 2637 4203 
Q 2422 4441 2034 4441 
Q 1650 4441 1433 4203 
Q 1216 3966 1216 3541 
Q 1216 3113 1433 2875 
Q 1650 2638 2034 2638 
Q 2422 2638 2637 2875 
Q 2853 3113 2853 3541 
z
M 2516 2484 
Q 3047 2413 3344 2092 
Q 3641 1772 3641 1275 
Q 3641 619 3225 264 
Q 2809 -91 2034 -91 
Q 1263 -91 845 264 
Q 428 619 428 1275 
Q 428 1772 725 2092 
Q 1022 2413 1556 2484 
Q 1084 2569 832 2842 
Q 581 3116 581 3541 
Q 581 4103 968 4426 
Q 1356 4750 2034 4750 
Q 2713 4750 3100 4426 
Q 3488 4103 3488 3541 
Q 3488 3116 3236 2842 
Q 2984 2569 2516 2484 
z
" transform="scale(0.015625)"/>
       </defs>
       <use xlink:href="#DejaVuSerif-15"/>
       <use xlink:href="#DejaVuSerif-13" transform="translate(63.625 0)"/>
       <use xlink:href="#DejaVuSerif-15" transform="translate(127.25 0)"/>
       <use xlink:href="#DejaVuSerif-19" transform="translate(190.875 0)"/>
       <use xlink:href="#DejaVuSerif-10" transform="translate(254.5 0)"/>
       <use xlink:href="#DejaVuSerif-13" transform="translate(288.296875 0)"/>
       <use xlink:href="#DejaVuSerif-1b" transform="translate(351.921875 0)"/>
      </g>
     </g>
    </g>
    <g id="xtick_9">
     <g id="line2d_17">
      <path d="M 578.077076 242.996328 
L 578.077076 20.798437 
" clip-path="url(#pe965ee6623)" style="fill: none; stroke-dasharray: 0.8,1.32; stroke-dashoffset: 0; stroke: #b0b0b0; stroke-opacity: 0.25; stroke-width: 0.8"/>
     </g>
     <g id="line2d_18">
      <g>
       <use xlink:href="#mf2ff5a9f17" x="578.077076" y="242.996328" style="stroke: #000000; stroke-width: 0.8"/>
      </g>
     </g>
     <g id="text_9">
      <!-- 2026-09 -->
      <g transform="translate(559.377467 256.834219) scale(0.09 -0.09)">
       <defs>
        <path id="DejaVuSerif-1c" d="M 2994 2091 
Q 2784 1856 2512 1740 
Q 2241 1625 1900 1625 
Q 1206 1625 804 2044 
Q 403 2463 403 3188 
Q 403 3897 839 4323 
Q 1275 4750 2003 4750 
Q 2794 4750 3217 4161 
Q 3641 3572 3641 2478 
Q 3641 1253 3137 581 
Q 2634 -91 1722 -91 
Q 1475 -91 1203 -44 
Q 931 3 647 97 
L 647 872 
L 997 872 
Q 1038 556 1241 387 
Q 1444 219 1784 219 
Q 2391 219 2687 676 
Q 2984 1134 2994 2091 
z
M 1978 4441 
Q 1534 4441 1298 4117 
Q 1063 3794 1063 3188 
Q 1063 2581 1298 2256 
Q 1534 1931 1978 1931 
Q 2422 1931 2658 2245 
Q 2894 2559 2894 3150 
Q 2894 3772 2656 4106 
Q 2419 4441 1978 4441 
z
" transform="scale(0.015625)"/>
       </defs>
       <use xlink:href="#DejaVuSerif-15"/>
       <use xlink:href="#DejaVuSerif-13" transform="translate(63.625 0)"/>
       <use xlink:href="#DejaVuSerif-15" transform="translate(127.25 0)"/>
       <use xlink:href="#DejaVuSerif-19" transform="translate(190.875 0)"/>
       <use xlink:href="#DejaVuSerif-10" transform="translate(254.5 0)"/>
       <use xlink:href="#DejaVuSerif-13" transform="translate(288.296875 0)"/>
       <use xlink:href="#DejaVuSerif-1c" transform="translate(351.921875 0)"/>
      </g>
     </g>
    </g>
   </g>
   <g id="matplotlib.axis_2">
    <g id="ytick_1">
     <g id="line2d_19">
      <path d="M 62.5575 227.156288 
L 592.031902 227.156288 
" clip-path="url(#pe965ee6623)" style="fill: none; stroke-dasharray: 0.8,1.32; stroke-dashoffset: 0; stroke: #b0b0b0; stroke-opacity: 0.25; stroke-width: 0.8"/>
     </g>
     <g id="line2d_20">
      <defs>
       <path id="m40595082b1" d="M 0 0 
L -3.5 0 
" style="stroke: #000000; stroke-width: 0.8"/>
      </defs>
      <g>
       <use xlink:href="#m40595082b1" x="62.5575" y="227.156288" style="stroke: #000000; stroke-width: 0.8"/>
      </g>
     </g>
     <g id="text_10">
      <!-- 60000 -->
      <g transform="translate(26.92625 230.575233) scale(0.09 -0.09)">
       <use xlink:href="#DejaVuSerif-19"/>
       <use xlink:href="#DejaVuSerif-13" transform="translate(63.625 0)"/>
       <use xlink:href="#DejaVuSerif-13" transform="translate(127.25 0)"/>
       <use xlink:href="#DejaVuSerif-13" transform="translate(190.875 0)"/>
       <use xlink:href="#DejaVuSerif-13" transform="translate(254.5 0)"/>
      </g>
     </g>
    </g>
    <g id="ytick_2">
     <g id="line2d_21">
      <path d="M 62.5575 185.318563 
L 592.031902 185.318563 
" clip-path="url(#pe965ee6623)" style="fill: none; stroke-dasharray: 0.8,1.32; stroke-dashoffset: 0; stroke: #b0b0b0; stroke-opacity: 0.25; stroke-width: 0.8"/>
     </g>
     <g id="line2d_22">
      <g>
       <use xlink:href="#m40595082b1" x="62.5575" y="185.318563" style="stroke: #000000; stroke-width: 0.8"/>
      </g>
     </g>
     <g id="text_11">
      <!-- 70000 -->
      <g transform="translate(26.92625 188.737508) scale(0.09 -0.09)">
       <use xlink:href="#DejaVuSerif-1a"/>
       <use xlink:href="#DejaVuSerif-13" transform="translate(63.625 0)"/>
       <use xlink:href="#DejaVuSerif-13" transform="translate(127.25 0)"/>
       <use xlink:href="#DejaVuSerif-13" transform="translate(190.875 0)"/>
       <use xlink:href="#DejaVuSerif-13" transform="translate(254.5 0)"/>
      </g>
     </g>
    </g>
    <g id="ytick_3">
     <g id="line2d_23">
      <path d="M 62.5575 143.480837 
L 592.031902 143.480837 
" clip-path="url(#pe965ee6623)" style="fill: none; stroke-dasharray: 0.8,1.32; stroke-dashoffset: 0; stroke: #b0b0b0; stroke-opacity: 0.25; stroke-width: 0.8"/>
     </g>
     <g id="line2d_24">
      <g>
       <use xlink:href="#m40595082b1" x="62.5575" y="143.480837" style="stroke: #000000; stroke-width: 0.8"/>
      </g>
     </g>
     <g id="text_12">
      <!-- 80000 -->
      <g transform="translate(26.92625 146.899782) scale(0.09 -0.09)">
       <use xlink:href="#DejaVuSerif-1b"/>
       <use xlink:href="#DejaVuSerif-13" transform="translate(63.625 0)"/>
       <use xlink:href="#DejaVuSerif-13" transform="translate(127.25 0)"/>
       <use xlink:href="#DejaVuSerif-13" transform="translate(190.875 0)"/>
       <use xlink:href="#DejaVuSerif-13" transform="translate(254.5 0)"/>
      </g>
     </g>
    </g>
    <g id="ytick_4">
     <g id="line2d_25">
      <path d="M 62.5575 101.643111 
L 592.031902 101.643111 
" clip-path="url(#pe965ee6623)" style="fill: none; stroke-dasharray: 0.8,1.32; stroke-dashoffset: 0; stroke: #b0b0b0; stroke-opacity: 0.25; stroke-width: 0.8"/>
     </g>
     <g id="line2d_26">
      <g>
       <use xlink:href="#m40595082b1" x="62.5575" y="101.643111" style="stroke: #000000; stroke-width: 0.8"/>
      </g>
     </g>
     <g id="text_13">
      <!-- 90000 -->
      <g transform="translate(26.92625 105.062057) scale(0.09 -0.09)">
       <use xlink:href="#DejaVuSerif-1c"/>
       <use xlink:href="#DejaVuSerif-13" transform="translate(63.625 0)"/>
       <use xlink:href="#DejaVuSerif-13" transform="translate(127.25 0)"/>
       <use xlink:href="#DejaVuSerif-13" transform="translate(190.875 0)"/>
       <use xlink:href="#DejaVuSerif-13" transform="translate(254.5 0)"/>
      </g>
     </g>
    </g>
    <g id="ytick_5">
     <g id="line2d_27">
      <path d="M 62.5575 59.805386 
L 592.031902 59.805386 
" clip-path="url(#pe965ee6623)" style="fill: none; stroke-dasharray: 0.8,1.32; stroke-dashoffset: 0; stroke: #b0b0b0; stroke-opacity: 0.25; stroke-width: 0.8"/>
     </g>
     <g id="line2d_28">
      <g>
       <use xlink:href="#m40595082b1" x="62.5575" y="59.805386" style="stroke: #000000; stroke-width: 0.8"/>
      </g>
     </g>
     <g id="text_14">
      <!-- 100000 -->
      <g transform="translate(21.2 63.224331) scale(0.09 -0.09)">
       <use xlink:href="#DejaVuSerif-14"/>
       <use xlink:href="#DejaVuSerif-13" transform="translate(63.625 0)"/>
       <use xlink:href="#DejaVuSerif-13" transform="translate(127.25 0)"/>
       <use xlink:href="#DejaVuSerif-13" transform="translate(190.875 0)"/>
       <use xlink:href="#DejaVuSerif-13" transform="translate(254.5 0)"/>
       <use xlink:href="#DejaVuSerif-13" transform="translate(318.125 0)"/>
      </g>
     </g>
    </g>
    <g id="text_15">
     <!-- BTC/USDT -->
     <g transform="translate(14.797656 159.399727) rotate(-90) scale(0.1 -0.1)">
      <defs>
       <path id="DejaVuSerif-25" d="M 1581 331 
L 2516 331 
Q 3078 331 3337 575 
Q 3597 819 3597 1350 
Q 3597 1878 3339 2120 
Q 3081 2363 2516 2363 
L 1581 2363 
L 1581 331 
z
M 1581 2694 
L 2375 2694 
Q 2888 2694 3123 2891 
Q 3359 3088 3359 3513 
Q 3359 3941 3123 4136 
Q 2888 4331 2375 4331 
L 1581 4331 
L 1581 2694 
z
M 353 0 
L 353 331 
L 947 331 
L 947 4331 
L 353 4331 
L 353 4666 
L 2656 4666 
Q 3363 4666 3720 4377 
Q 4078 4088 4078 3513 
Q 4078 3097 3829 2850 
Q 3581 2603 3103 2547 
Q 3697 2472 4005 2167 
Q 4313 1863 4313 1350 
Q 4313 656 3875 328 
Q 3438 0 2509 0 
L 353 0 
z
" transform="scale(0.015625)"/>
       <path id="DejaVuSerif-37" d="M 1222 0 
L 1222 331 
L 1819 331 
L 1819 4294 
L 447 4294 
L 447 3566 
L 63 3566 
L 63 4666 
L 4206 4666 
L 4206 3566 
L 3822 3566 
L 3822 4294 
L 2450 4294 
L 2450 331 
L 3047 331 
L 3047 0 
L 1222 0 
z
" transform="scale(0.015625)"/>
       <path id="DejaVuSerif-26" d="M 4513 1234 
Q 4306 581 3820 245 
Q 3334 -91 2591 -91 
Q 2134 -91 1743 65 
Q 1353 222 1050 525 
Q 700 875 529 1320 
Q 359 1766 359 2328 
Q 359 3416 987 4083 
Q 1616 4750 2644 4750 
Q 3025 4750 3456 4650 
Q 3888 4550 4384 4347 
L 4384 3272 
L 4031 3272 
Q 3916 3859 3567 4137 
Q 3219 4416 2591 4416 
Q 1844 4416 1459 3886 
Q 1075 3356 1075 2328 
Q 1075 1303 1459 773 
Q 1844 244 2591 244 
Q 3113 244 3450 492 
Q 3788 741 3938 1234 
L 4513 1234 
z
" transform="scale(0.015625)"/>
       <path id="DejaVuSerif-12" d="M 1656 4666 
L 2156 4666 
L 500 -594 
L 0 -594 
L 1656 4666 
z
" transform="scale(0.015625)"/>
       <path id="DejaVuSerif-38" d="M 897 4331 
L 300 4331 
L 300 4666 
L 2125 4666 
L 2125 4331 
L 1528 4331 
L 1528 1919 
Q 1528 1025 1820 672 
Q 2113 319 2828 319 
Q 3544 319 3836 672 
Q 4128 1025 4128 1919 
L 4128 4331 
L 3531 4331 
L 3531 4666 
L 5106 4666 
L 5106 4331 
L 4513 4331 
L 4513 1856 
Q 4513 791 4103 350 
Q 3694 -91 2713 -91 
Q 1731 -91 1314 353 
Q 897 797 897 1856 
L 897 4331 
z
" transform="scale(0.015625)"/>
       <path id="DejaVuSerif-36" d="M 594 225 
L 594 1288 
L 953 1284 
Q 969 753 1261 498 
Q 1553 244 2150 244 
Q 2706 244 2998 464 
Q 3291 684 3291 1106 
Q 3291 1444 3114 1625 
Q 2938 1806 2369 1978 
L 1753 2163 
Q 1084 2366 811 2669 
Q 538 2972 538 3500 
Q 538 4094 959 4422 
Q 1381 4750 2144 4750 
Q 2469 4750 2856 4679 
Q 3244 4609 3681 4475 
L 3681 3481 
L 3328 3481 
Q 3275 3975 2998 4195 
Q 2722 4416 2156 4416 
Q 1663 4416 1405 4214 
Q 1147 4013 1147 3628 
Q 1147 3294 1340 3103 
Q 1534 2913 2163 2725 
L 2741 2553 
Q 3375 2363 3645 2067 
Q 3916 1772 3916 1275 
Q 3916 597 3481 253 
Q 3047 -91 2188 -91 
Q 1803 -91 1404 -12 
Q 1006 66 594 225 
z
" transform="scale(0.015625)"/>
       <path id="DejaVuSerif-27" d="M 1581 331 
L 2163 331 
Q 3072 331 3558 850 
Q 4044 1369 4044 2338 
Q 4044 3306 3559 3818 
Q 3075 4331 2163 4331 
L 1581 4331 
L 1581 331 
z
M 353 0 
L 353 331 
L 947 331 
L 947 4331 
L 353 4331 
L 353 4666 
L 2209 4666 
Q 3416 4666 4089 4050 
Q 4763 3434 4763 2338 
Q 4763 1238 4088 619 
Q 3413 0 2209 0 
L 353 0 
z
" transform="scale(0.015625)"/>
      </defs>
      <use xlink:href="#DejaVuSerif-25"/>
      <use xlink:href="#DejaVuSerif-37" transform="translate(73.484375 0)"/>
      <use xlink:href="#DejaVuSerif-26" transform="translate(140.1875 0)"/>
      <use xlink:href="#DejaVuSerif-12" transform="translate(216.703125 0)"/>
      <use xlink:href="#DejaVuSerif-38" transform="translate(250.390625 0)"/>
      <use xlink:href="#DejaVuSerif-36" transform="translate(334.671875 0)"/>
      <use xlink:href="#DejaVuSerif-27" transform="translate(403.171875 0)"/>
      <use xlink:href="#DejaVuSerif-37" transform="translate(483.34375 0)"/>
     </g>
    </g>
   </g>
   <g id="line2d_29">
    <path d="M 86.624518 106.466583 
L 88.646957 101.697919 
L 90.669395 98.994783 
L 92.691834 95.212235 
L 94.714272 85.448146 
L 96.736711 85.953964 
L 98.759149 95.907578 
L 100.781588 97.052676 
L 102.804026 98.982232 
L 104.826465 99.530725 
L 106.848903 97.409134 
L 108.871342 96.187472 
L 110.89378 79.001371 
L 112.916219 72.583046 
L 114.938657 78.184699 
L 116.961096 78.381336 
L 118.983534 80.080366 
L 121.005973 86.271513 
L 123.028411 90.648157 
L 125.05085 108.259329 
L 127.073288 103.918665 
L 129.095727 103.483135 
L 131.118165 103.28315 
L 133.140604 104.874657 
L 135.163043 115.588462 
L 137.185481 108.555122 
L 139.20792 104.780941 
L 141.230358 104.572171 
L 143.252797 124.006631 
L 145.275235 125.686416 
L 147.297674 148.756993 
L 149.320112 156.124198 
L 151.342551 148.761176 
L 153.364989 161.144725 
L 155.387428 172.063953 
L 157.409866 214.968122 
L 159.432305 182.926281 
L 161.454743 188.262683 
L 163.477182 183.921182 
L 165.49962 184.747896 
L 167.522059 190.1663 
L 169.544497 197.528066 
L 171.566936 200.876339 
L 173.589374 190.129901 
L 175.611813 186.064529 
L 177.634251 190.180525 
L 179.65669 189.941213 
L 181.679128 195.74034 
L 183.701567 200.101504 
L 185.724005 197.856492 
L 187.746444 193.627535 
L 189.768882 193.781916 
L 191.791321 195.204817 
L 193.813759 207.667857 
L 195.836198 210.180213 
L 197.858636 193.728364 
L 199.881075 195.852047 
L 201.903513 202.584155 
L 203.925952 197.999577 
L 205.94839 203.01341 
L 207.970829 190.203954 
L 209.993267 192.297095 
L 212.015706 174.113164 
L 214.038144 181.618434 
L 216.060583 193.196188 
L 218.083021 196.769548 
L 220.10546 202.165778 
L 222.127898 191.915117 
L 224.150337 185.527751 
L 226.172775 184.503564 
L 228.195214 183.122082 
L 230.217652 181.423052 
L 232.240091 180.241555 
L 234.262529 173.57555 
L 236.284968 164.887109 
L 238.307406 168.984278 
L 240.329845 180.075877 
L 242.352284 185.637784 
L 244.374722 183.160991 
L 246.397161 189.832435 
L 248.419599 194.271417 
L 250.442038 181.553167 
L 252.464476 182.986109 
L 254.486915 179.733645 
L 258.531792 200.363827 
L 260.55423 200.509841 
L 262.576669 201.981692 
L 264.599107 198.707053 
L 266.621546 192.523019 
L 268.643984 193.218362 
L 270.666423 198.297043 
L 272.688861 198.037231 
L 274.7113 196.604289 
L 276.733738 189.376822 
L 278.756177 190.167555 
L 280.778615 177.30622 
L 282.801054 180.831466 
L 284.823492 177.842579 
L 286.845931 172.945474 
L 288.868369 172.540066 
L 290.890808 182.211275 
L 292.913246 166.833819 
L 294.935685 167.960927 
L 296.958123 165.184157 
L 298.980562 163.784685 
L 301.003 155.724229 
L 303.025439 161.474824 
L 305.047877 169.394706 
L 307.070316 160.883657 
L 309.092754 158.836537 
L 311.115193 151.082333 
L 313.137631 150.800347 
L 315.16007 154.302165 
L 317.182508 153.440308 
L 319.204947 149.133114 
L 321.227385 154.479138 
L 323.249824 158.78424 
L 325.272262 161.117949 
L 327.294701 158.772944 
L 329.317139 150.867706 
L 331.339578 148.949028 
L 333.362016 149.434345 
L 335.384455 144.045646 
L 337.406893 139.668165 
L 339.429332 137.454949 
L 341.45177 143.404692 
L 343.474209 142.658726 
L 345.496648 140.653862 
L 347.519086 134.218383 
L 349.541525 136.195215 
L 351.563963 141.418655 
L 353.586402 146.32371 
L 355.60884 138.941862 
L 357.631279 147.176782 
L 359.653717 151.261817 
L 361.676156 154.126446 
L 363.698594 156.000776 
L 365.721033 156.709926 
L 367.743471 153.729825 
L 369.76591 153.439471 
L 371.788348 162.131258 
L 373.810787 157.086465 
L 375.833225 155.729668 
L 377.855664 154.6695 
L 379.878102 160.458586 
L 381.900541 166.696173 
L 383.922979 170.165775 
L 385.945418 170.807566 
L 387.967856 169.072137 
L 389.990295 169.915585 
L 392.012733 179.398524 
L 394.035172 198.884445 
L 396.05761 209.809112 
L 398.080049 210.885178 
L 400.102487 222.740316 
L 402.124926 223.452394 
L 404.147364 213.218887 
L 406.169803 214.215043 
L 408.192241 219.918362 
L 410.21468 220.851761 
L 412.237118 211.977561 
L 414.259557 212.185913 
L 416.281995 208.520092 
L 418.304434 203.12428 
L 420.326872 200.701876 
L 422.349311 203.39246 
L 424.371749 208.321362 
L 426.394188 214.800353 
L 428.416626 212.341549 
L 430.439065 209.166066 
L 432.461503 213.29545 
L 434.483942 210.305726 
L 436.50638 215.728313 
L 438.528819 222.641997 
L 440.551257 227.999737 
L 442.573696 226.720339 
L 444.596134 226.986427 
L 446.618573 228.930626 
L 448.641012 226.072691 
L 450.66345 232.896424 
L 452.685889 227.005672 
L 454.708327 220.633368 
L 456.730766 216.318225 
L 458.753204 214.016732 
L 460.775643 211.908947 
L 462.798081 210.216193 
L 464.82052 213.064924 
L 466.842958 217.590092 
L 470.887835 209.71163 
L 472.910274 211.185991 
L 474.932712 211.318199 
L 476.955151 217.399312 
L 478.977589 206.081371 
L 481.000028 207.240276 
L 483.022466 211.129092 
L 485.044905 210.68352 
L 487.067343 206.93235 
L 489.089782 207.364115 
L 491.11222 205.152155 
L 493.134659 199.69275 
L 495.157097 201.577539 
L 497.179536 205.835783 
L 499.201974 209.791958 
L 501.224413 208.850191 
L 503.246851 204.534211 
L 505.26929 211.425722 
L 507.291728 210.718246 
L 509.314167 210.487301 
L 511.336605 207.146977 
L 513.359044 215.060583 
L 515.381482 215.357213 
L 517.403921 212.200975 
L 519.426359 212.397612 
L 523.471236 207.662837 
L 525.493675 209.058125 
L 527.516113 206.58677 
L 529.538552 206.417746 
L 531.56099 206.658731 
L 533.583429 210.528721 
L 535.605867 212.139055 
L 537.628306 212.577096 
L 539.650744 212.601362 
L 541.673183 214.425905 
L 543.695621 214.252697 
L 545.71806 215.007031 
L 547.740498 208.193757 
L 549.762937 207.363697 
L 551.785376 188.091985 
L 553.807814 174.093082 
L 555.830253 150.135546 
L 557.852691 156.154739 
L 559.87513 153.835256 
L 561.897568 148.846944 
L 563.920007 147.820664 
L 565.942445 148.710971 
L 567.964884 142.377995 
L 567.964884 142.377995 
" clip-path="url(#pe965ee6623)" style="fill: none; stroke: #1a1a1a; stroke-width: 1.1; stroke-linecap: square"/>
   </g>
   <g id="line2d_30">
    <path d="M 86.624518 30.898342 
L 90.669395 31.541553 
L 94.714272 32.046419 
L 100.781588 32.677334 
L 112.916219 34.440595 
L 123.028411 35.842136 
L 135.163043 38.370762 
L 141.230358 40.129986 
L 145.275235 41.595077 
L 151.342551 44.128468 
L 155.387428 45.944771 
L 157.409866 47.081647 
L 163.477182 50.133474 
L 169.544497 53.225607 
L 173.589374 55.367317 
L 185.724005 61.288569 
L 193.813759 65.333691 
L 209.993267 74.012499 
L 216.060583 76.927548 
L 228.195214 82.64227 
L 238.307406 86.624291 
L 244.374722 89.021732 
L 252.464476 92.496134 
L 256.509353 94.194068 
L 264.599107 98.115327 
L 282.801054 107.022803 
L 286.845931 108.762158 
L 294.935685 111.932922 
L 301.003 114.214808 
L 303.025439 115.017007 
L 321.227385 123.48455 
L 333.362016 127.948506 
L 345.496648 131.425194 
L 349.541525 132.548589 
L 355.60884 134.563417 
L 361.676156 136.703761 
L 373.810787 140.580669 
L 383.922979 143.450693 
L 387.967856 144.741849 
L 396.05761 147.15863 
L 404.147364 149.707872 
L 422.349311 154.225608 
L 436.50638 158.162218 
L 442.573696 160.029986 
L 452.685889 163.360022 
L 458.753204 164.932463 
L 466.842958 166.917986 
L 476.955151 169.477065 
L 487.067343 171.91441 
L 495.157097 173.889939 
L 499.201974 175.064776 
L 505.26929 176.794256 
L 513.359044 179.050773 
L 523.471236 182.397923 
L 527.516113 183.591549 
L 533.583429 185.13127 
L 545.71806 188.328013 
L 549.762937 189.157335 
L 553.807814 189.443854 
L 557.852691 189.425776 
L 559.87513 189.334633 
L 561.897568 189.004027 
L 567.964884 188.423024 
L 567.964884 188.423024 
" clip-path="url(#pe965ee6623)" style="fill: none; stroke: #7a7a7a; stroke-linecap: square"/>
   </g>
   <g id="line2d_31">
    <path d="M 62.5575 164.3997 
L 592.031902 164.3997 
" clip-path="url(#pe965ee6623)" style="fill: none; stroke-dasharray: 3.7,1.6; stroke-dashoffset: 0; stroke: #b3382c"/>
   </g>
   <g id="line2d_32">
    <path d="M 551.785376 242.996328 
L 551.785376 20.798437 
" clip-path="url(#pe965ee6623)" style="fill: none; stroke-dasharray: 0.8,1.32; stroke-dashoffset: 0; stroke: #7a7a7a; stroke-width: 0.8"/>
   </g>
   <g id="patch_3">
    <path d="M 62.5575 242.996328 
L 62.5575 20.798438 
" style="fill: none; stroke: #000000; stroke-width: 0.8; stroke-linejoin: miter; stroke-linecap: square"/>
   </g>
   <g id="patch_4">
    <path d="M 62.5575 242.996328 
L 592.031902 242.996328 
" style="fill: none; stroke: #000000; stroke-width: 0.8; stroke-linejoin: miter; stroke-linecap: square"/>
   </g>
   <g id="text_16">
    <!--  calls issued -->
    <g transform="translate(551.785376 82.717792) scale(0.08 -0.08)">
     <defs>
      <path id="DejaVuSerif-3" transform="scale(0.015625)"/>
      <path id="DejaVuSerif-46" d="M 3291 997 
Q 3169 466 2822 187 
Q 2475 -91 1925 -91 
Q 1200 -91 759 389 
Q 319 869 319 1663 
Q 319 2459 759 2936 
Q 1200 3413 1925 3413 
Q 2241 3413 2553 3339 
Q 2866 3266 3181 3116 
L 3181 2266 
L 2847 2266 
Q 2781 2703 2561 2903 
Q 2341 3103 1931 3103 
Q 1466 3103 1228 2742 
Q 991 2381 991 1663 
Q 991 944 1227 581 
Q 1463 219 1931 219 
Q 2303 219 2525 412 
Q 2747 606 2828 997 
L 3291 997 
z
" transform="scale(0.015625)"/>
      <path id="DejaVuSerif-44" d="M 2547 1044 
L 2547 1747 
L 1806 1747 
Q 1378 1747 1168 1562 
Q 959 1378 959 997 
Q 959 650 1171 447 
Q 1384 244 1747 244 
Q 2106 244 2326 466 
Q 2547 688 2547 1044 
z
M 3122 2075 
L 3122 331 
L 3634 331 
L 3634 0 
L 2547 0 
L 2547 359 
Q 2356 128 2106 18 
Q 1856 -91 1522 -91 
Q 969 -91 644 203 
Q 319 497 319 997 
Q 319 1513 691 1797 
Q 1063 2081 1741 2081 
L 2547 2081 
L 2547 2309 
Q 2547 2688 2317 2895 
Q 2088 3103 1672 3103 
Q 1328 3103 1125 2947 
Q 922 2791 872 2484 
L 575 2484 
L 575 3156 
Q 875 3284 1158 3348 
Q 1441 3413 1709 3413 
Q 2400 3413 2761 3070 
Q 3122 2728 3122 2075 
z
" transform="scale(0.015625)"/>
      <path id="DejaVuSerif-4f" d="M 1313 331 
L 1856 331 
L 1856 0 
L 184 0 
L 184 331 
L 738 331 
L 738 4531 
L 184 4531 
L 184 4863 
L 1313 4863 
L 1313 331 
z
" transform="scale(0.015625)"/>
      <path id="DejaVuSerif-56" d="M 359 184 
L 359 959 
L 691 959 
Q 703 588 923 403 
Q 1144 219 1575 219 
Q 1963 219 2166 364 
Q 2369 509 2369 788 
Q 2369 1006 2220 1140 
Q 2072 1275 1594 1428 
L 1178 1569 
Q 750 1706 558 1912 
Q 366 2119 366 2438 
Q 366 2894 700 3153 
Q 1034 3413 1625 3413 
Q 1888 3413 2178 3344 
Q 2469 3275 2778 3144 
L 2778 2419 
L 2447 2419 
Q 2434 2741 2221 2922 
Q 2009 3103 1644 3103 
Q 1281 3103 1095 2975 
Q 909 2847 909 2591 
Q 909 2381 1050 2254 
Q 1191 2128 1613 1997 
L 2069 1856 
Q 2541 1709 2748 1489 
Q 2956 1269 2956 922 
Q 2956 450 2595 179 
Q 2234 -91 1600 -91 
Q 1278 -91 972 -22 
Q 666 47 359 184 
z
" transform="scale(0.015625)"/>
      <path id="DejaVuSerif-4c" d="M 622 4353 
Q 622 4497 726 4603 
Q 831 4709 978 4709 
Q 1122 4709 1226 4603 
Q 1331 4497 1331 4353 
Q 1331 4206 1228 4103 
Q 1125 4000 978 4000 
Q 831 4000 726 4103 
Q 622 4206 622 4353 
z
M 1356 331 
L 1900 331 
L 1900 0 
L 231 0 
L 231 331 
L 781 331 
L 781 2988 
L 231 2988 
L 231 3322 
L 1356 3322 
L 1356 331 
z
" transform="scale(0.015625)"/>
      <path id="DejaVuSerif-58" d="M 2266 3322 
L 3341 3322 
L 3341 331 
L 3884 331 
L 3884 0 
L 2766 0 
L 2766 588 
Q 2606 256 2353 82 
Q 2100 -91 1766 -91 
Q 1213 -91 952 223 
Q 691 538 691 1209 
L 691 2988 
L 172 2988 
L 172 3322 
L 1269 3322 
L 1269 1388 
Q 1269 781 1417 556 
Q 1566 331 1947 331 
Q 2347 331 2556 625 
Q 2766 919 2766 1478 
L 2766 2988 
L 2266 2988 
L 2266 3322 
z
" transform="scale(0.015625)"/>
      <path id="DejaVuSerif-48" d="M 3469 1600 
L 991 1600 
L 991 1575 
Q 991 903 1244 561 
Q 1497 219 1991 219 
Q 2369 219 2611 417 
Q 2853 616 2950 1006 
L 3413 1006 
Q 3275 459 2904 184 
Q 2534 -91 1931 -91 
Q 1203 -91 761 389 
Q 319 869 319 1663 
Q 319 2450 753 2931 
Q 1188 3413 1894 3413 
Q 2647 3413 3050 2948 
Q 3453 2484 3469 1600 
z
M 2791 1931 
Q 2772 2513 2545 2808 
Q 2319 3103 1894 3103 
Q 1497 3103 1269 2806 
Q 1041 2509 991 1931 
L 2791 1931 
z
" transform="scale(0.015625)"/>
      <path id="DejaVuSerif-47" d="M 3359 331 
L 3909 331 
L 3909 0 
L 2784 0 
L 2784 519 
Q 2616 206 2355 57 
Q 2094 -91 1709 -91 
Q 1097 -91 708 395 
Q 319 881 319 1663 
Q 319 2444 706 2928 
Q 1094 3413 1709 3413 
Q 2094 3413 2355 3264 
Q 2616 3116 2784 2803 
L 2784 4531 
L 2241 4531 
L 2241 4863 
L 3359 4863 
L 3359 331 
z
M 2784 1497 
L 2784 1825 
Q 2784 2422 2554 2737 
Q 2325 3053 1888 3053 
Q 1444 3053 1217 2703 
Q 991 2353 991 1663 
Q 991 975 1217 622 
Q 1444 269 1888 269 
Q 2325 269 2554 583 
Q 2784 897 2784 1497 
z
" transform="scale(0.015625)"/>
     </defs>
     <use xlink:href="#DejaVuSerif-3"/>
     <use xlink:href="#DejaVuSerif-46" transform="translate(31.78125 0)"/>
     <use xlink:href="#DejaVuSerif-44" transform="translate(87.78125 0)"/>
     <use xlink:href="#DejaVuSerif-4f" transform="translate(147.40625 0)"/>
     <use xlink:href="#DejaVuSerif-4f" transform="translate(179.390625 0)"/>
     <use xlink:href="#DejaVuSerif-56" transform="translate(211.375 0)"/>
     <use xlink:href="#DejaVuSerif-3" transform="translate(262.6875 0)"/>
     <use xlink:href="#DejaVuSerif-4c" transform="translate(294.46875 0)"/>
     <use xlink:href="#DejaVuSerif-56" transform="translate(326.453125 0)"/>
     <use xlink:href="#DejaVuSerif-56" transform="translate(377.765625 0)"/>
     <use xlink:href="#DejaVuSerif-58" transform="translate(429.078125 0)"/>
     <use xlink:href="#DejaVuSerif-48" transform="translate(493.484375 0)"/>
     <use xlink:href="#DejaVuSerif-47" transform="translate(552.671875 0)"/>
    </g>
   </g>
   <g id="text_17">
    <!-- 2026: BTC at $80.3k, 1.159x its 200-day mean -->
    <g transform="translate(62.5575 14.798437) scale(0.1 -0.1)">
     <defs>
      <path id="DejaVuSerif-1d" d="M 666 325 
Q 666 500 786 622 
Q 906 744 1081 744 
Q 1256 744 1376 622 
Q 1497 500 1497 325 
Q 1497 150 1378 29 
Q 1259 -91 1081 -91 
Q 903 -91 784 29 
Q 666 150 666 325 
z
M 666 2363 
Q 666 2538 786 2658 
Q 906 2778 1081 2778 
Q 1259 2778 1378 2659 
Q 1497 2541 1497 2363 
Q 1497 2184 1378 2065 
Q 1259 1947 1081 1947 
Q 906 1947 786 2067 
Q 666 2188 666 2363 
z
" transform="scale(0.015625)"/>
      <path id="DejaVuSerif-57" d="M 691 2988 
L 184 2988 
L 184 3322 
L 691 3322 
L 691 4353 
L 1269 4353 
L 1269 3322 
L 2350 3322 
L 2350 2988 
L 1269 2988 
L 1269 878 
Q 1269 456 1350 337 
Q 1431 219 1650 219 
Q 1875 219 1978 351 
Q 2081 484 2088 781 
L 2522 781 
Q 2497 328 2275 118 
Q 2053 -91 1600 -91 
Q 1103 -91 897 129 
Q 691 350 691 878 
L 691 2988 
z
" transform="scale(0.015625)"/>
      <path id="DejaVuSerif-7" d="M 2156 213 
Q 2509 244 2695 416 
Q 2881 588 2881 884 
Q 2881 1153 2697 1340 
Q 2513 1528 2156 1625 
L 2156 213 
z
M 1844 3709 
Q 1522 3688 1344 3523 
Q 1166 3359 1166 3084 
Q 1166 2834 1330 2668 
Q 1494 2503 1844 2400 
L 1844 3709 
z
M 550 225 
L 550 1088 
L 888 1088 
Q 900 659 1137 440 
Q 1375 222 1844 213 
L 1844 1728 
Q 1125 1928 834 2189 
Q 544 2450 544 2881 
Q 544 3381 887 3684 
Q 1231 3988 1844 4025 
L 1844 4863 
L 2156 4863 
L 2156 4025 
Q 2472 4000 2764 3923 
Q 3056 3847 3334 3719 
L 3334 2900 
L 2994 2900 
Q 2956 3263 2740 3472 
Q 2525 3681 2156 3709 
L 2156 2297 
Q 2925 2088 3233 1817 
Q 3541 1547 3541 1094 
Q 3541 575 3178 262 
Q 2816 -50 2156 -97 
L 2156 -941 
L 1844 -941 
L 1844 -97 
Q 1544 -91 1222 -11 
Q 900 69 550 225 
z
" transform="scale(0.015625)"/>
      <path id="DejaVuSerif-11" d="M 603 325 
Q 603 500 722 622 
Q 841 744 1019 744 
Q 1191 744 1312 622 
Q 1434 500 1434 325 
Q 1434 153 1312 31 
Q 1191 -91 1019 -91 
Q 841 -91 722 29 
Q 603 150 603 325 
z
" transform="scale(0.015625)"/>
      <path id="DejaVuSerif-4e" d="M 1831 0 
L 219 0 
L 219 331 
L 738 331 
L 738 4531 
L 184 4531 
L 184 4863 
L 1313 4863 
L 1313 1697 
L 2713 2988 
L 2234 2988 
L 2234 3322 
L 3738 3322 
L 3738 2988 
L 3169 2988 
L 2181 2075 
L 3444 331 
L 3922 331 
L 3922 0 
L 2284 0 
L 2284 331 
L 2759 331 
L 1766 1697 
L 1313 1275 
L 1313 331 
L 1831 331 
L 1831 0 
z
" transform="scale(0.015625)"/>
      <path id="DejaVuSerif-f" d="M 231 -622 
Q 525 -406 662 -114 
Q 800 178 800 594 
L 800 709 
L 1416 709 
Q 1391 175 1164 -208 
Q 938 -591 481 -872 
L 231 -622 
z
" transform="scale(0.015625)"/>
      <path id="DejaVuSerif-5b" d="M 1863 2028 
L 2559 2988 
L 2113 2988 
L 2113 3322 
L 3391 3322 
L 3391 2988 
L 2950 2988 
L 2059 1759 
L 3097 331 
L 3531 331 
L 3531 0 
L 1997 0 
L 1997 331 
L 2419 331 
L 1697 1325 
L 972 331 
L 1403 331 
L 1403 0 
L 141 0 
L 141 331 
L 581 331 
L 1497 1594 
L 488 2988 
L 78 2988 
L 78 3322 
L 1563 3322 
L 1563 2988 
L 1166 2988 
L 1863 2028 
z
" transform="scale(0.015625)"/>
      <path id="DejaVuSerif-5c" d="M 1381 -609 
L 1600 -56 
L 359 2988 
L -19 2988 
L -19 3322 
L 1509 3322 
L 1509 2988 
L 978 2988 
L 1913 703 
L 2847 2988 
L 2350 2988 
L 2350 3322 
L 3597 3322 
L 3597 2988 
L 3225 2988 
L 1703 -750 
Q 1547 -1138 1356 -1280 
Q 1166 -1422 819 -1422 
Q 672 -1422 517 -1397 
Q 363 -1372 206 -1325 
L 206 -691 
L 500 -691 
Q 519 -903 608 -995 
Q 697 -1088 884 -1088 
Q 1056 -1088 1161 -992 
Q 1266 -897 1381 -609 
z
" transform="scale(0.015625)"/>
      <path id="DejaVuSerif-50" d="M 3316 2675 
Q 3481 3041 3739 3227 
Q 3997 3413 4341 3413 
Q 4863 3413 5119 3089 
Q 5375 2766 5375 2113 
L 5375 331 
L 5894 331 
L 5894 0 
L 4300 0 
L 4300 331 
L 4800 331 
L 4800 2047 
Q 4800 2556 4650 2772 
Q 4500 2988 4153 2988 
Q 3769 2988 3567 2697 
Q 3366 2406 3366 1850 
L 3366 331 
L 3866 331 
L 3866 0 
L 2291 0 
L 2291 331 
L 2791 331 
L 2791 2069 
Q 2791 2566 2641 2777 
Q 2491 2988 2144 2988 
Q 1759 2988 1557 2697 
Q 1356 2406 1356 1850 
L 1356 331 
L 1856 331 
L 1856 0 
L 263 0 
L 263 331 
L 781 331 
L 781 2994 
L 231 2994 
L 231 3322 
L 1356 3322 
L 1356 2731 
Q 1516 3063 1762 3238 
Q 2009 3413 2322 3413 
Q 2709 3413 2968 3220 
Q 3228 3028 3316 2675 
z
" transform="scale(0.015625)"/>
      <path id="DejaVuSerif-51" d="M 263 0 
L 263 331 
L 781 331 
L 781 2988 
L 231 2988 
L 231 3322 
L 1356 3322 
L 1356 2731 
Q 1516 3069 1770 3241 
Q 2025 3413 2363 3413 
Q 2913 3413 3172 3097 
Q 3431 2781 3431 2113 
L 3431 331 
L 3944 331 
L 3944 0 
L 2356 0 
L 2356 331 
L 2853 331 
L 2853 1931 
Q 2853 2541 2703 2767 
Q 2553 2994 2175 2994 
Q 1775 2994 1565 2701 
Q 1356 2409 1356 1850 
L 1356 331 
L 1856 331 
L 1856 0 
L 263 0 
z
" transform="scale(0.015625)"/>
     </defs>
     <use xlink:href="#DejaVuSerif-15"/>
     <use xlink:href="#DejaVuSerif-13" transform="translate(63.625 0)"/>
     <use xlink:href="#DejaVuSerif-15" transform="translate(127.25 0)"/>
     <use xlink:href="#DejaVuSerif-19" transform="translate(190.875 0)"/>
     <use xlink:href="#DejaVuSerif-1d" transform="translate(254.5 0)"/>
     <use xlink:href="#DejaVuSerif-3" transform="translate(288.1875 0)"/>
     <use xlink:href="#DejaVuSerif-25" transform="translate(319.96875 0)"/>
     <use xlink:href="#DejaVuSerif-37" transform="translate(393.453125 0)"/>
     <use xlink:href="#DejaVuSerif-26" transform="translate(460.15625 0)"/>
     <use xlink:href="#DejaVuSerif-3" transform="translate(536.671875 0)"/>
     <use xlink:href="#DejaVuSerif-44" transform="translate(568.453125 0)"/>
     <use xlink:href="#DejaVuSerif-57" transform="translate(628.078125 0)"/>
     <use xlink:href="#DejaVuSerif-3" transform="translate(668.265625 0)"/>
     <use xlink:href="#DejaVuSerif-7" transform="translate(700.046875 0)"/>
     <use xlink:href="#DejaVuSerif-1b" transform="translate(763.671875 0)"/>
     <use xlink:href="#DejaVuSerif-13" transform="translate(827.296875 0)"/>
     <use xlink:href="#DejaVuSerif-11" transform="translate(890.921875 0)"/>
     <use xlink:href="#DejaVuSerif-16" transform="translate(922.703125 0)"/>
     <use xlink:href="#DejaVuSerif-4e" transform="translate(986.328125 0)"/>
     <use xlink:href="#DejaVuSerif-f" transform="translate(1046.921875 0)"/>
     <use xlink:href="#DejaVuSerif-3" transform="translate(1078.703125 0)"/>
     <use xlink:href="#DejaVuSerif-14" transform="translate(1110.484375 0)"/>
     <use xlink:href="#DejaVuSerif-11" transform="translate(1174.109375 0)"/>
     <use xlink:href="#DejaVuSerif-14" transform="translate(1205.890625 0)"/>
     <use xlink:href="#DejaVuSerif-18" transform="translate(1269.515625 0)"/>
     <use xlink:href="#DejaVuSerif-1c" transform="translate(1333.140625 0)"/>
     <use xlink:href="#DejaVuSerif-5b" transform="translate(1396.765625 0)"/>
     <use xlink:href="#DejaVuSerif-3" transform="translate(1453.15625 0)"/>
     <use xlink:href="#DejaVuSerif-4c" transform="translate(1484.9375 0)"/>
     <use xlink:href="#DejaVuSerif-57" transform="translate(1516.921875 0)"/>
     <use xlink:href="#DejaVuSerif-56" transform="translate(1557.109375 0)"/>
     <use xlink:href="#DejaVuSerif-3" transform="translate(1608.421875 0)"/>
     <use xlink:href="#DejaVuSerif-15" transform="translate(1640.203125 0)"/>
     <use xlink:href="#DejaVuSerif-13" transform="translate(1703.828125 0)"/>
     <use xlink:href="#DejaVuSerif-13" transform="translate(1767.453125 0)"/>
     <use xlink:href="#DejaVuSerif-10" transform="translate(1831.078125 0)"/>
     <use xlink:href="#DejaVuSerif-47" transform="translate(1864.875 0)"/>
     <use xlink:href="#DejaVuSerif-44" transform="translate(1928.890625 0)"/>
     <use xlink:href="#DejaVuSerif-5c" transform="translate(1988.515625 0)"/>
     <use xlink:href="#DejaVuSerif-3" transform="translate(2045.015625 0)"/>
     <use xlink:href="#DejaVuSerif-50" transform="translate(2076.796875 0)"/>
     <use xlink:href="#DejaVuSerif-48" transform="translate(2171.625 0)"/>
     <use xlink:href="#DejaVuSerif-44" transform="translate(2230.8125 0)"/>
     <use xlink:href="#DejaVuSerif-51" transform="translate(2290.4375 0)"/>
    </g>
   </g>
   <g id="legend_1">
    <g id="line2d_33">
     <path d="M 70.6575 32.587031 
L 79.6575 32.587031 
L 88.6575 32.587031 
" style="fill: none; stroke: #1a1a1a; stroke-width: 1.1; stroke-linecap: square"/>
    </g>
    <g id="text_18">
     <!-- BTC daily close -->
     <g transform="translate(95.8575 35.737031) scale(0.09 -0.09)">
      <defs>
       <path id="DejaVuSerif-52" d="M 1925 219 
Q 2388 219 2623 584 
Q 2859 950 2859 1663 
Q 2859 2375 2623 2739 
Q 2388 3103 1925 3103 
Q 1463 3103 1227 2739 
Q 991 2375 991 1663 
Q 991 950 1228 584 
Q 1466 219 1925 219 
z
M 1925 -91 
Q 1200 -91 759 389 
Q 319 869 319 1663 
Q 319 2456 758 2934 
Q 1197 3413 1925 3413 
Q 2653 3413 3092 2934 
Q 3531 2456 3531 1663 
Q 3531 869 3092 389 
Q 2653 -91 1925 -91 
z
" transform="scale(0.015625)"/>
      </defs>
      <use xlink:href="#DejaVuSerif-25"/>
      <use xlink:href="#DejaVuSerif-37" transform="translate(73.484375 0)"/>
      <use xlink:href="#DejaVuSerif-26" transform="translate(140.1875 0)"/>
      <use xlink:href="#DejaVuSerif-3" transform="translate(216.703125 0)"/>
      <use xlink:href="#DejaVuSerif-47" transform="translate(248.484375 0)"/>
      <use xlink:href="#DejaVuSerif-44" transform="translate(312.5 0)"/>
      <use xlink:href="#DejaVuSerif-4c" transform="translate(372.125 0)"/>
      <use xlink:href="#DejaVuSerif-4f" transform="translate(404.109375 0)"/>
      <use xlink:href="#DejaVuSerif-5c" transform="translate(436.09375 0)"/>
      <use xlink:href="#DejaVuSerif-3" transform="translate(492.59375 0)"/>
      <use xlink:href="#DejaVuSerif-46" transform="translate(524.375 0)"/>
      <use xlink:href="#DejaVuSerif-4f" transform="translate(580.375 0)"/>
      <use xlink:href="#DejaVuSerif-52" transform="translate(612.359375 0)"/>
      <use xlink:href="#DejaVuSerif-56" transform="translate(672.5625 0)"/>
      <use xlink:href="#DejaVuSerif-48" transform="translate(723.875 0)"/>
     </g>
    </g>
    <g id="line2d_34">
     <path d="M 70.6575 46.087734 
L 79.6575 46.087734 
L 88.6575 46.087734 
" style="fill: none; stroke: #7a7a7a; stroke-linecap: square"/>
    </g>
    <g id="text_19">
     <!-- 200-day mean -->
     <g transform="translate(95.8575 49.237734) scale(0.09 -0.09)">
      <use xlink:href="#DejaVuSerif-15"/>
      <use xlink:href="#DejaVuSerif-13" transform="translate(63.625 0)"/>
      <use xlink:href="#DejaVuSerif-13" transform="translate(127.25 0)"/>
      <use xlink:href="#DejaVuSerif-10" transform="translate(190.875 0)"/>
      <use xlink:href="#DejaVuSerif-47" transform="translate(224.671875 0)"/>
      <use xlink:href="#DejaVuSerif-44" transform="translate(288.6875 0)"/>
      <use xlink:href="#DejaVuSerif-5c" transform="translate(348.3125 0)"/>
      <use xlink:href="#DejaVuSerif-3" transform="translate(404.8125 0)"/>
      <use xlink:href="#DejaVuSerif-50" transform="translate(436.59375 0)"/>
      <use xlink:href="#DejaVuSerif-48" transform="translate(531.421875 0)"/>
      <use xlink:href="#DejaVuSerif-44" transform="translate(590.609375 0)"/>
      <use xlink:href="#DejaVuSerif-51" transform="translate(650.234375 0)"/>
     </g>
    </g>
    <g id="line2d_35">
     <path d="M 70.6575 59.588438 
L 79.6575 59.588438 
L 88.6575 59.588438 
" style="fill: none; stroke-dasharray: 3.7,1.6; stroke-dashoffset: 0; stroke: #b3382c"/>
    </g>
    <g id="text_20">
     <!-- $75k call line -->
     <g transform="translate(95.8575 62.738438) scale(0.09 -0.09)">
      <use xlink:href="#DejaVuSerif-7"/>
      <use xlink:href="#DejaVuSerif-1a" transform="translate(63.625 0)"/>
      <use xlink:href="#DejaVuSerif-18" transform="translate(127.25 0)"/>
      <use xlink:href="#DejaVuSerif-4e" transform="translate(190.875 0)"/>
      <use xlink:href="#DejaVuSerif-3" transform="translate(251.46875 0)"/>
      <use xlink:href="#DejaVuSerif-46" transform="translate(283.25 0)"/>
      <use xlink:href="#DejaVuSerif-44" transform="translate(339.25 0)"/>
      <use xlink:href="#DejaVuSerif-4f" transform="translate(398.875 0)"/>
      <use xlink:href="#DejaVuSerif-4f" transform="translate(430.859375 0)"/>
      <use xlink:href="#DejaVuSerif-3" transform="translate(462.84375 0)"/>
      <use xlink:href="#DejaVuSerif-4f" transform="translate(494.625 0)"/>
      <use xlink:href="#DejaVuSerif-4c" transform="translate(526.609375 0)"/>
      <use xlink:href="#DejaVuSerif-51" transform="translate(558.59375 0)"/>
      <use xlink:href="#DejaVuSerif-48" transform="translate(623 0)"/>
     </g>
    </g>
   </g>
  </g>
 </g>
 <defs>
  <clipPath id="pe965ee6623">
   <rect x="62.5575" y="20.798437" width="529.474402" height="222.197891"/>
  </clipPath>
 </defs>
</svg>
